<?xml version="1.0" standalone="no"?>
<!DOCTYPE svg PUBLIC "-//W3C//DTD SVG 1.1//EN"
   "http://www.w3.org/Graphics/SVG/1.1/DTD/svg11.dtd">
<svg width="466" height="118" version="1.1"
   xmlns="http://www.w3.org/2000/svg">
   <desc>Zint Generated Symbol
   </desc>

   <g id="barcode" fill="#000000">
      <rect x="0" y="0" width="466" height="118" fill="#FFFFFF" />
      <rect x="0.00" y="0.00" width="4.00" height="100.00" />
      <rect x="6.00" y="0.00" width="2.00" height="100.00" />
      <rect x="12.00" y="0.00" width="6.00" height="100.00" />
      <rect x="22.00" y="0.00" width="8.00" height="100.00" />
      <rect x="32.00" y="0.00" width="2.00" height="100.00" />
      <rect x="36.00" y="0.00" width="6.00" height="100.00" />
      <rect x="44.00" y="0.00" width="4.00" height="100.00" />
      <rect x="52.00" y="0.00" width="4.00" height="100.00" />
      <rect x="58.00" y="0.00" width="4.00" height="100.00" />
      <rect x="66.00" y="0.00" width="8.00" height="100.00" />
      <rect x="76.00" y="0.00" width="2.00" height="100.00" />
      <rect x="84.00" y="0.00" width="2.00" height="100.00" />
      <rect x="88.00" y="0.00" width="4.00" height="100.00" />
      <rect x="94.00" y="0.00" width="4.00" height="100.00" />
      <rect x="100.00" y="0.00" width="8.00" height="100.00" />
      <rect x="110.00" y="0.00" width="8.00" height="100.00" />
      <rect x="122.00" y="0.00" width="2.00" height="100.00" />
      <rect x="126.00" y="0.00" width="2.00" height="100.00" />
      <rect x="132.00" y="0.00" width="2.00" height="100.00" />
      <rect x="138.00" y="0.00" width="2.00" height="100.00" />
      <rect x="142.00" y="0.00" width="4.00" height="100.00" />
      <rect x="154.00" y="0.00" width="2.00" height="100.00" />
      <rect x="158.00" y="0.00" width="4.00" height="100.00" />
      <rect x="168.00" y="0.00" width="6.00" height="100.00" />
      <rect x="176.00" y="0.00" width="4.00" height="100.00" />
      <rect x="182.00" y="0.00" width="6.00" height="100.00" />
      <rect x="192.00" y="0.00" width="2.00" height="100.00" />
      <rect x="198.00" y="0.00" width="2.00" height="100.00" />
      <rect x="204.00" y="0.00" width="4.00" height="100.00" />
      <rect x="212.00" y="0.00" width="2.00" height="100.00" />
      <rect x="220.00" y="0.00" width="4.00" height="100.00" />
      <rect x="230.00" y="0.00" width="4.00" height="100.00" />
      <rect x="236.00" y="0.00" width="4.00" height="100.00" />
      <rect x="242.00" y="0.00" width="4.00" height="100.00" />
      <rect x="250.00" y="0.00" width="4.00" height="100.00" />
      <rect x="258.00" y="0.00" width="4.00" height="100.00" />
      <rect x="264.00" y="0.00" width="4.00" height="100.00" />
      <rect x="272.00" y="0.00" width="4.00" height="100.00" />
      <rect x="278.00" y="0.00" width="4.00" height="100.00" />
      <rect x="286.00" y="0.00" width="6.00" height="100.00" />
      <rect x="294.00" y="0.00" width="4.00" height="100.00" />
      <rect x="300.00" y="0.00" width="6.00" height="100.00" />
      <rect x="308.00" y="0.00" width="2.00" height="100.00" />
      <rect x="312.00" y="0.00" width="6.00" height="100.00" />
      <rect x="320.00" y="0.00" width="4.00" height="100.00" />
      <rect x="330.00" y="0.00" width="2.00" height="100.00" />
      <rect x="334.00" y="0.00" width="6.00" height="100.00" />
      <rect x="344.00" y="0.00" width="4.00" height="100.00" />
      <rect x="352.00" y="0.00" width="2.00" height="100.00" />
      <rect x="356.00" y="0.00" width="6.00" height="100.00" />
      <rect x="364.00" y="0.00" width="8.00" height="100.00" />
      <rect x="374.00" y="0.00" width="2.00" height="100.00" />
      <rect x="378.00" y="0.00" width="4.00" height="100.00" />
      <rect x="386.00" y="0.00" width="6.00" height="100.00" />
      <rect x="396.00" y="0.00" width="4.00" height="100.00" />
      <rect x="402.00" y="0.00" width="4.00" height="100.00" />
      <rect x="412.00" y="0.00" width="4.00" height="100.00" />
      <rect x="418.00" y="0.00" width="8.00" height="100.00" />
      <rect x="430.00" y="0.00" width="2.00" height="100.00" />
      <rect x="434.00" y="0.00" width="2.00" height="100.00" />
      <rect x="440.00" y="0.00" width="4.00" height="100.00" />
      <rect x="450.00" y="0.00" width="6.00" height="100.00" />
      <rect x="458.00" y="0.00" width="2.00" height="100.00" />
      <rect x="462.00" y="0.00" width="4.00" height="100.00" />
      <text x="233.00" y="118.00" text-anchor="middle"
         font-family="Helvetica" font-size="18.0" fill="#000000" >
         0198898765432106320201234515991231
      </text>
   </g>
</svg>
